<svg xmlns="http://www.w3.org/2000/svg" viewBox="0 0 32 32" fill="none">
  <path
    fill="#ffffff"
    d="M16 3C8.82 3 3 8.54 3 15.38c0 2.7.9 5.2 2.43 7.27L4.5 29l6.62-1.75c1.48.74 3.17 1.16 4.98 1.16 7.18 0 13-5.54 13-12.38S23.18 3 16 3Zm0 22.02c-1.6 0-3.09-.42-4.38-1.15l-.31-.18-3.93 1.04 1.06-3.73-.21-.33a9.33 9.33 0 0 1-1.56-5.02C6.67 10.05 10.94 6 16 6c5.06 0 9.33 4.05 9.33 9.65S21.06 25.02 16 25.02Z"
  />
  <path
    fill="#ffffff"
    d="M21.08 19.14c-.2-.12-1.16-.56-1.34-.62-.18-.06-.31-.12-.44.12-.13.23-.51.62-.62.75-.11.12-.22.14-.42.04-.2-.12-.85-.3-1.61-.96-.6-.5-1-1.12-1.12-1.31-.11-.2-.01-.3.1-.4.1-.1.2-.22.31-.33.1-.12.13-.2.2-.33.07-.12.03-.23-.01-.33-.05-.1-.44-1.02-.6-1.4-.16-.37-.33-.31-.44-.31-.12 0-.24-.02-.37-.02-.12 0-.33.04-.5.2-.17.16-.66.62-.66 1.51 0 .89.68 1.75.78 1.88.1.12 1.33 2.06 3.28 2.8 1.95.75 1.95.5 2.3.46.35-.04 1.16-.45 1.32-.9.16-.44.16-.83.12-.9-.05-.08-.18-.12-.38-.23Z"
  />
</svg>
